<svg width="112" height="70" viewBox="0 0 112 70" fill="none" xmlns="http://www.w3.org/2000/svg">
<path d="M8 6.625H104C108.142 6.625 111.5 9.98286 111.5 14.125V55.875C111.5 60.0171 108.142 63.375 104 63.375H8C3.85787 63.375 0.5 60.0171 0.5 55.875V14.125C0.5 9.98286 3.85786 6.625 8 6.625Z" fill="#131038"/>
<path d="M8 6.625H104C108.142 6.625 111.5 9.98286 111.5 14.125V55.875C111.5 60.0171 108.142 63.375 104 63.375H8C3.85787 63.375 0.5 60.0171 0.5 55.875V14.125C0.5 9.98286 3.85786 6.625 8 6.625Z" stroke="#131038"/>
<path d="M47.658 33.7764C47.4767 35.1365 46.3886 35.1365 45.3912 35.1365H44.8472L45.3005 32.5069C45.3005 32.3256 45.4819 32.2349 45.6632 32.2349H45.9353C46.6606 32.2349 47.2954 32.2349 47.658 32.5976C47.658 32.9603 47.658 33.323 47.658 33.7764ZM47.2047 30.1494H43.3057C43.0337 30.1494 42.8524 30.3308 42.7617 30.6028L41.2202 40.5769C41.2202 40.7582 41.3109 40.9396 41.5829 40.9396H43.3964C43.6684 40.9396 43.8497 40.7582 43.9404 40.4862L44.3938 37.766C44.3938 37.494 44.6658 37.3126 44.9378 37.3126H46.2073C48.7461 37.3126 50.1969 36.0432 50.6503 33.595C50.8316 32.5069 50.6503 31.6909 50.1969 31.0562C49.4715 30.5121 48.4741 30.1494 47.2047 30.1494Z" fill="white"/>
<path d="M56.1814 37.403C56 38.4911 55.184 39.2165 54.0959 39.2165C53.5519 39.2165 53.0985 39.0351 52.8265 38.6724C52.5545 38.3098 52.4638 37.8564 52.5545 37.403C52.7358 36.3149 53.5519 35.5895 54.64 35.5895C55.184 35.5895 55.6374 35.7709 55.9094 36.1336C56.0907 36.4056 56.2721 36.859 56.1814 37.403ZM58.7203 33.7761H56.9068C56.7255 33.7761 56.6348 33.8667 56.5441 34.0481L56.4534 34.5921L56.3628 34.4108C56.0001 33.8667 55.0933 33.5947 54.1866 33.5947C52.1011 33.5947 50.3783 35.1362 50.0156 37.3123C49.8343 38.4004 50.1063 39.3978 50.741 40.1232C51.285 40.7579 52.1011 41.03 53.0985 41.03C54.7306 41.03 55.6373 39.9419 55.6373 39.9419L55.5467 40.4859C55.5467 40.6673 55.6374 40.8486 55.9094 40.8486H57.5415C57.8135 40.8486 57.9949 40.6673 58.0855 40.3952L59.083 34.0481C59.083 33.9574 58.9923 33.7761 58.7203 33.7761Z" fill="white"/>
<path d="M68.6037 33.7764H66.6995C66.5182 33.7764 66.3368 33.867 66.2462 34.0484L63.7073 37.8567L62.6192 34.2297C62.5286 33.9577 62.3472 33.867 62.0752 33.867H60.2617C60.0804 33.867 59.899 34.0484 59.9897 34.3204L62.0752 40.3049L60.171 43.0251C59.9897 43.2064 60.171 43.5691 60.4431 43.5691H62.3472C62.5286 43.5691 62.7099 43.4784 62.8006 43.2971L68.9664 34.3204C69.057 34.0484 68.8757 33.7764 68.6037 33.7764Z" fill="white"/>
<path d="M75.2227 33.7764C75.0414 35.1365 73.9533 35.1365 72.9559 35.1365H72.4119L72.8652 32.5069C72.8652 32.3256 73.0466 32.2349 73.2279 32.2349H73.4999C74.2253 32.2349 74.86 32.2349 75.2227 32.5976C75.3134 32.9603 75.3134 33.323 75.2227 33.7764ZM74.7694 30.1494H70.8704C70.5984 30.1494 70.417 30.3308 70.3264 30.6028L68.7849 40.5769C68.7849 40.7582 68.8756 40.9396 69.1476 40.9396H71.1424C71.3238 40.9396 71.5051 40.8489 71.5051 40.5769L71.9585 37.766C71.9585 37.494 72.2305 37.3126 72.5025 37.3126H73.772C76.3108 37.3126 77.7616 36.0432 78.215 33.595C78.3963 32.5069 78.215 31.6909 77.7616 31.0562C77.1269 30.5121 76.1295 30.1494 74.7694 30.1494Z" fill="white"/>
<path d="M83.8368 37.403C83.6554 38.4911 82.8394 39.2165 81.7513 39.2165C81.2073 39.2165 80.7539 39.0351 80.4819 38.6724C80.2099 38.3098 80.1192 37.8564 80.2098 37.403C80.3912 36.3149 81.2073 35.5895 82.2954 35.5895C82.8394 35.5895 83.2928 35.7709 83.5648 36.1336C83.7461 36.4056 83.9275 36.859 83.8368 37.403ZM86.3757 33.7761H84.5622C84.3808 33.7761 84.2902 33.8667 84.1995 34.0481L84.1088 34.5921L84.0181 34.4108C83.6555 33.8667 82.7487 33.5947 81.842 33.5947C79.7565 33.5947 78.0337 35.1362 77.671 37.3123C77.4897 38.4004 77.7617 39.3978 78.3964 40.1232C78.9404 40.7579 79.7565 41.03 80.7539 41.03C82.386 41.03 83.2927 39.9419 83.2927 39.9419L83.2021 40.4859C83.2021 40.6673 83.2928 40.8486 83.5648 40.8486H85.1969C85.4689 40.8486 85.6503 40.6673 85.7409 40.3952L86.7384 34.0481C86.7384 33.9574 86.557 33.7761 86.3757 33.7761Z" fill="white"/>
<path d="M88.5518 30.4214L86.9197 40.5769C86.9197 40.7582 87.0104 40.9396 87.2824 40.9396H88.9145C89.1865 40.9396 89.3679 40.7582 89.4586 40.4862L91 30.5121C91 30.3308 90.9093 30.1494 90.6373 30.1494H88.8238C88.7332 30.1494 88.6425 30.3308 88.5518 30.4214Z" fill="white"/>
<path d="M25.0803 42.8435L25.3524 40.9393H24.7176H21.5441L23.7202 27.0663C23.7202 27.0663 23.7202 26.9756 23.8109 26.9756H23.9016H29.2513C30.9741 26.9756 32.2436 27.3383 32.8783 28.0637C33.1503 28.4264 33.3316 28.7891 33.4223 29.1518C33.513 29.6051 33.513 30.0585 33.4223 30.6932V31.0559L33.6943 31.2372C33.9664 31.3279 34.1477 31.5093 34.3291 31.6906C34.6011 31.9626 34.7824 32.3253 34.7824 32.7787C34.8731 33.2321 34.8731 33.7761 34.6917 34.4108C34.5104 35.1362 34.329 35.6802 34.057 36.2243C33.785 36.6777 33.4223 37.0404 33.0596 37.403C32.6969 37.6751 32.1529 37.8564 31.6995 38.0378C31.1555 38.1284 30.6114 38.2191 29.9767 38.2191H29.5233C29.2513 38.2191 28.9793 38.3098 28.7073 38.4911C28.5259 38.6725 28.3446 38.9445 28.2539 39.2165V39.3979L27.7099 42.7528V42.8435V42.9341C27.7099 42.9341 27.7099 42.9341 27.6192 42.9341H25.0803V42.8435Z" fill="white"/>
<path d="M34.057 30.6934C34.057 30.784 34.057 30.8747 33.9663 30.9654C33.2409 34.5923 30.8834 35.7711 27.8005 35.7711H26.259C25.8964 35.7711 25.5337 36.0431 25.5337 36.4058L24.7176 41.4835L24.5363 42.9343C24.5363 43.2063 24.7176 43.3877 24.8989 43.3877H27.7098C28.0725 43.3877 28.3445 43.1156 28.3445 42.8436V42.6623L28.8886 39.398V39.2167C28.9793 38.854 29.2513 38.6726 29.5233 38.6726H29.9767C32.6969 38.6726 34.7824 37.5846 35.3264 34.411C35.5984 33.0509 35.4171 31.9628 34.7824 31.2374C34.601 31.0561 34.329 30.8747 34.057 30.6934Z" fill="white"/>
<path d="M33.3316 30.4214C33.2409 30.4214 33.1503 30.3308 32.9689 30.3308C32.8783 30.3308 32.6969 30.2401 32.6062 30.2401C32.1529 30.1494 31.6995 30.1494 31.2461 30.1494H27.0751C26.9845 30.1494 26.8938 30.1494 26.8031 30.2401C26.6218 30.3308 26.4404 30.5121 26.4404 30.6935L25.5337 36.3152V36.4966C25.6244 36.1339 25.8964 35.8619 26.2591 35.8619H27.8005C30.8834 35.8619 33.2409 34.5924 33.9663 31.0562C33.9663 30.9655 33.9663 30.8748 34.057 30.7841C33.8757 30.6935 33.6943 30.6028 33.513 30.5121C33.4223 30.4214 33.3316 30.4214 33.3316 30.4214Z" fill="white"/>
<path d="M26.4404 30.6933C26.4404 30.5119 26.6218 30.3306 26.8031 30.2399C26.8938 30.2399 26.9845 30.1493 27.0751 30.1493H31.2461C31.6995 30.1493 32.2435 30.1493 32.6062 30.2399C32.6969 30.2399 32.8782 30.2399 32.9689 30.3306C33.0596 30.3306 33.1503 30.4213 33.3316 30.4213C33.4223 30.4213 33.4223 30.4213 33.5129 30.512C33.6943 30.6026 33.8756 30.6933 34.057 30.784C34.2383 29.4239 34.057 28.5171 33.3316 27.7011C32.5155 26.7943 31.0648 26.4316 29.2513 26.4316H23.9016C23.5389 26.4316 23.1762 26.7037 23.1762 27.0664L21 41.0301C21 41.3021 21.1813 41.5741 21.4534 41.5741H24.7176L25.5337 36.3151L26.4404 30.6933Z" fill="white"/>
</svg>
